<svg xmlns="http://www.w3.org/2000/svg" width="99" height="55" viewBox="0 0 99 55" fill="none">
<g clip-path="url(#clip0_2529_1346)">
<path d="M48.0051 37.5713V7.96143L40.5856 9.53028V39.1311L33.1569 40.6999V11.0991L25.7193 12.668V42.2778C25.7102 46.3622 29.035 48.959 33.1569 48.0934L40.5765 46.5245C44.6804 45.659 48.0142 41.6467 48.0051 37.5622V37.5713Z" fill="#F7F7F7"/>
<path d="M76.7051 1.56885L84.1247 0V29.6008L99 26.4541V33.8566L76.696 38.5721V1.56885H76.7051Z" fill="#F7F7F7"/>
<path d="M22.304 42.8821V20.7108L22.2859 20.6837C22.2859 16.5993 18.9702 13.9845 14.8663 14.8501L0 18.0059V55.0001L14.8572 51.8624C18.9792 50.9878 22.304 46.9755 22.304 42.8821ZM7.42862 46.0288V23.8304L14.8572 22.2616V44.46L7.42862 46.0288Z" fill="#F7F7F7"/>
<path d="M51.3933 43.9999V7.00561L73.6973 2.29004V9.6925L58.831 12.8392V20.2417L69.983 17.8794V25.2818L58.831 27.6441V35.0466L73.6973 31.8999V39.3023L51.3933 44.0179V43.9999Z" fill="#F7F7F7"/>
</g>
<defs>
<clipPath id="clip0_2529_1346">
<rect width="99" height="55" fill="white"/>
</clipPath>
</defs>
</svg>