<svg xmlns="http://www.w3.org/2000/svg" width="146" height="52" viewBox="0 0 146 52" fill="none">
<path d="M124.762 11.2143V4.56689L104.82 8.80957L104.828 42.0303L111.467 40.6215V27.3267L121.434 25.2135V18.5661L111.467 20.6874V14.04L124.762 11.2143Z" fill="#2F70FA"/>
<path d="M146 6.64739V0L126.066 4.23458L126.074 37.4634L132.713 36.0546V22.7598L142.68 20.6466V13.9992L132.713 16.1124V9.47314L146 6.64739Z" fill="#2F70FA"/>
<path d="M86.8133 46.1272L96.9909 43.9654C100.659 43.1881 103.638 39.577 103.63 35.9091V15.9589C103.63 12.2911 100.667 9.95921 96.9909 10.7365L86.7566 12.9145C85.0401 13.1493 83.688 12.0077 83.688 10.2588V13.5703V15.2464C83.688 15.7241 83.688 16.2908 83.688 16.9143C83.688 18.6551 85.0401 19.7967 86.7566 19.5619L96.999 17.3839V37.318L86.8133 39.4798C85.0725 39.747 83.688 38.5973 83.688 36.8322V41.8197C83.688 42.4108 83.688 42.9695 83.688 43.4877C83.688 45.2527 85.0725 46.3944 86.8052 46.1353L86.8133 46.1272Z" fill="url(#paint0_linear_2529_1336)"/>
<path d="M61.4135 15.1149V11.7872C61.4135 8.11936 58.4339 5.77131 54.7661 6.55669L48.1187 7.96552C44.4509 8.7428 41.4875 12.3539 41.4875 16.0217V35.972V35.9639C41.4875 39.6317 44.4671 41.9798 48.143 41.1944L54.7742 39.7856C58.442 39.0083 61.4054 35.3972 61.4054 31.7293V28.4016L54.7742 29.8104V33.1382L48.1268 34.547V14.6129L54.7742 13.196V16.5318L61.4135 15.123V15.1149Z" fill="#F7F7F7"/>
<path d="M34.3869 44.118L41.1477 42.6768L32.9538 11.1968L24.9624 12.8971L16.7766 47.8668L23.5293 46.4336L24.8895 39.5029L33.0348 37.7702L34.395 44.1261L34.3869 44.118ZM26.2498 32.5559L28.9622 18.6862L31.6826 31.3981L26.2579 32.5478L26.2498 32.5559Z" fill="#F7F7F7"/>
<path d="M19.9343 20.737V14.0977L0.000244141 18.3322V51.553L6.63954 50.1442L6.64764 36.8575L16.6147 34.7362V28.0888L6.64764 30.2101V23.5627L19.9343 20.737Z" fill="#F7F7F7"/>
<path d="M80.3681 1.06025L63.7456 4.59041V37.8112L80.4248 34.2648C82.2385 33.9086 83.6959 35.0745 83.6959 36.8882V30.2408C83.6959 28.4271 82.2385 27.2612 80.4248 27.6174L70.393 29.7469V23.0995L80.4329 20.9619C82.2385 20.6138 83.6959 21.7716 83.6959 23.5934V16.946C83.6959 15.1242 82.2304 13.9583 80.4167 14.3227L70.393 16.4521V9.80469L80.3762 7.68335C82.2061 7.29471 83.6959 8.46873 83.6959 10.2986V3.68358C83.6959 1.84563 82.2061 0.679703 80.3762 1.06835L80.3681 1.06025Z" fill="#F7F7F7"/>
<defs>
<linearGradient id="paint0_linear_2529_1336" x1="83.6961" y1="28.2092" x2="103.638" y2="28.2092" gradientUnits="userSpaceOnUse">
<stop stop-opacity="0.24"/>
<stop offset="0.125" stop-color="#0C1D40" stop-opacity="0.433654"/>
<stop offset="0.317308" stop-color="#1F4AA5" stop-opacity="0.741721"/>
<stop offset="1" stop-color="#2F70FA"/>
</linearGradient>
</defs>
</svg>