<svg xmlns="http://www.w3.org/2000/svg" width="189" height="93" viewBox="0 0 189 93" fill="none">
<g clip-path="url(#clip0_2529_1319)">
<path d="M140.677 34.7433L140.67 51.0442L133.165 36.3477L128.326 37.3769V68.4349L134.498 67.1181L134.505 50.6507L141.596 65.597L146.842 64.477L146.849 33.4189L140.677 34.7433Z" fill="#00CEB8"/>
<path d="M20.3 90.4874V59.4369L26.4871 58.1126V70.5312L32.6517 69.2145V56.7958L38.8312 55.479V86.5295L32.6592 87.8462V75.4276L26.4871 76.7444V89.1706L20.3076 90.4874H20.3Z" fill="#00CEB8"/>
<path d="M65.3408 50.3026L71.5053 48.9858V73.8307L83.8644 71.1896V77.4027L65.3333 81.3606V50.3026H65.3408Z" fill="#00CEB8"/>
<path d="M86.2129 46.0194L92.3774 44.7026V69.5475L104.737 66.9064V73.1195L86.2053 77.0774V46.0194H86.2129Z" fill="#00CEB8"/>
<path d="M18.5312 68.4878V65.3775C18.5312 61.9493 15.7613 59.7546 12.3516 60.4887L6.17204 61.8055C2.76237 62.532 0 65.9072 0 69.3354V87.9823V87.9672C0 91.3954 2.76989 93.59 6.1871 92.8559L12.3516 91.5391C15.7613 90.8126 18.5161 87.4374 18.5161 84.0092V80.8989L12.3516 82.2157V85.326L6.17204 86.6428V68.011L12.3516 66.6867V69.8046L18.5237 68.4878H18.5312Z" fill="#00CEB8"/>
<path d="M167.88 38.5879V35.5003L167.865 35.4776C167.865 32.0494 165.095 29.8547 161.685 30.5888L155.52 31.9056C152.118 32.6321 149.356 36.0073 149.348 39.4355V39.4506V58.0597C149.348 61.503 152.111 63.6901 155.528 62.9636L161.692 61.6468C165.102 60.9203 167.872 57.5451 167.872 54.1169V41.6907L158.614 43.6734V49.8865L161.708 49.2281V55.4413L155.528 56.7581V38.1263L161.708 36.8095V39.9198L167.872 38.603L167.88 38.5879Z" fill="#00CEB8"/>
<path d="M56.7152 82.935L63.0002 81.5879L55.383 52.1646L47.9539 53.7538L40.3442 86.4389L46.6217 85.0994L47.8862 78.6214L55.4582 77.0019L56.7227 82.9426L56.7152 82.935ZM49.1507 72.1283L51.6722 59.1647L54.2012 71.0461L49.1582 72.1207L49.1507 72.1283Z" fill="#00CEB8"/>
<path d="M107.363 72.6275V41.5771L125.894 37.6191V43.8323L113.543 46.4734V52.6865L122.808 50.7038V56.9169L113.543 58.8996V65.1128L125.894 62.4716V68.6847L107.363 72.6427V72.6275Z" fill="#00CEB8"/>
<path d="M170.476 60.0577V29.0072L189.007 25.0493V31.2624L176.656 33.9036V40.1167L185.921 38.1339V44.3471L176.656 46.3298V52.5429L189.007 49.9018V56.1149L170.476 60.0728V60.0577Z" fill="#00CEB8"/>
<path d="M57.3926 15.8847L75.9238 11.9268V18.1399L69.7442 19.4567V44.3016L63.5721 45.6184V20.7735L57.3926 22.0978V15.8847Z" fill="#F7F7F7"/>
<path d="M119.166 18.6394V9.31592C119.166 5.8953 116.403 3.70822 112.994 4.43472L100.635 7.07586V38.1339L106.814 36.8171V27.4861L112.986 26.1693C116.396 25.4428 119.166 22.0751 119.166 18.6469V18.6394ZM112.994 19.9637L106.814 21.2805V11.9722L112.994 10.6554V19.9637Z" fill="#F7F7F7"/>
<path d="M55.3527 25.3748V22.272C55.3452 18.8438 52.5904 16.6492 49.1656 17.3832H49.1882L43.0011 18.7C39.5914 19.4265 36.8215 22.7942 36.8215 26.2224V32.443C36.8215 34.0323 37.4312 35.4928 38.6355 36.4464C39.8398 37.3999 41.4205 37.6723 43.0011 37.3318L49.1731 36.015L49.1882 42.2206L43.0011 43.5449V40.427L36.8291 41.7438V44.8617C36.8291 48.2899 39.5914 50.4845 42.9936 49.758L49.1807 48.4337C52.5828 47.7072 55.3527 44.3471 55.3527 40.9113V34.6907C55.3527 33.1014 54.743 31.6409 53.5387 30.6873C52.3344 29.7338 50.7538 29.4613 49.1731 29.8019L43.0011 31.1187V24.9056L49.1807 23.5888V26.6916L55.3602 25.3748H55.3527Z" fill="#F7F7F7"/>
<path d="M139.624 8.12769V5.02492C139.616 1.59673 136.861 -0.597916 133.437 0.136155H133.459L127.272 1.45294C123.862 2.17945 121.093 5.54709 121.093 8.97528V15.196C121.093 16.7852 121.702 18.2458 122.906 19.1993C124.111 20.1528 125.691 20.4253 127.272 20.0847L133.444 18.7679L133.459 24.9735L127.272 26.2978V23.1799L121.1 24.4967V27.6146C121.1 31.0428 123.862 33.2375 127.265 32.511L133.452 31.1866C136.854 30.4601 139.624 27.1 139.624 23.6643V17.4436C139.624 15.8544 139.014 14.3938 137.81 13.4402C136.605 12.4867 135.025 12.2143 133.444 12.5548L127.272 13.8716V7.65849L133.452 6.34171V9.44448L139.631 8.12769H139.624Z" fill="#F7F7F7"/>
<path d="M79.0098 42.7122V11.6542L97.5409 7.69629V13.9094L85.1893 16.5505V22.7637L94.4549 20.7809V26.994L85.1893 28.9768V35.1899L97.5409 32.5488V38.7619L79.0098 42.7198V42.7122Z" fill="#F7F7F7"/>
</g>
<defs>
<clipPath id="clip0_2529_1319">
<rect width="189" height="93" fill="white"/>
</clipPath>
</defs>
</svg> 